<svg aria-hidden="true" style="position: absolute; width: 0; height: 0; overflow: hidden;" version="1.1" xmlns="http://www.w3.org/2000/svg" xmlns:xlink="http://www.w3.org/1999/xlink">
<defs>
<symbol id="icon-basket" viewBox="0 0 32 32">
<path d="M28.775 13.375l1.725-7.2c0.050-0.225 0-0.45-0.15-0.65-0.15-0.175-0.35-0.275-0.6-0.275h-24.375c-0.675-3.075-2.55-4.75-2.625-4.825-0.325-0.25-0.8-0.225-1.050 0.075-0.275 0.325-0.25 0.8 0.050 1.050 0.025 0.025 1.8 1.625 2.25 4.55l2.175 14.375c0.25 1.6 1.6 2.775 3.225 2.775h14.85c0.425 0 0.75-0.325 0.75-0.75s-0.325-0.75-0.75-0.75h-14.85c-0.875 0-1.6-0.625-1.725-1.5l-0.025-0.15 16.35-2.375c2.35-0.325 4.225-2.050 4.775-4.35zM12.5 14.75c0 0.425-0.325 0.75-0.75 0.75s-0.75-0.325-0.75-0.75v-6c0-0.425 0.325-0.75 0.75-0.75s0.75 0.325 0.75 0.75v6zM17.5 14.75c0 0.425-0.325 0.75-0.75 0.75s-0.75-0.325-0.75-0.75v-6c0-0.425 0.325-0.75 0.75-0.75s0.75 0.325 0.75 0.75v6zM22.5 14.75c0 0.425-0.325 0.75-0.75 0.75s-0.75-0.325-0.75-0.75v-6c0-0.425 0.325-0.75 0.75-0.75s0.75 0.325 0.75 0.75v6zM7.75 28.5c0 1.8 1.45 3.25 3.25 3.25s3.25-1.45 3.25-3.25-1.45-3.25-3.25-3.25-3.25 1.45-3.25 3.25zM12.75 28.5c0 0.975-0.775 1.75-1.75 1.75s-1.75-0.775-1.75-1.75 0.775-1.75 1.75-1.75 1.75 0.775 1.75 1.75zM21.75 25.25c-1.8 0-3.25 1.45-3.25 3.25s1.45 3.25 3.25 3.25 3.25-1.45 3.25-3.25-1.45-3.25-3.25-3.25zM21.75 30.25c-0.975 0-1.75-0.775-1.75-1.75s0.775-1.75 1.75-1.75 1.75 0.775 1.75 1.75-0.775 1.75-1.75 1.75z"></path>
</symbol>
</defs>
</svg>
